<svg xmlns="http://www.w3.org/2000/svg" width="22" height="30" viewBox="0 0 23 31">
	<defs>
		<style> .country-pin{fill:#fff;} .pin-selected-country{fill:#fff;} .country-pin-dark{fill:#161319;} </style>
	</defs>
	<g class="hover">
		<path class="pin-selected-country" d="M11.5,30.5c-6.1-0.1-11.1-5.1-11-11.3c0,0,0,0,0,0l0,0c0-6.2,11-18.7,11-18.7s11,12.5,11,18.8
	C22.6,25.4,17.6,30.4,11.5,30.5z"/>
		<circle class="country-pin-dark" cx="11" cy="19" r="2"/>
	</g>
	<g class="default">
		<path class="country-pin" d="M11.5,3.59c4,4.84,9,12.14,9,15.66a9.14,9.14,0,0,1-9,9.25,9.14,9.14,0,0,1-9-9.25c0-3.51,5-10.81,9-15.66m0-3.09S0.5,13,.5,19.25a11.13,11.13,0,0,0,11,11.25,11.13,11.13,0,0,0,11-11.25C22.5,13,11.5.5,11.5,0.5h0Z" transform="translate(-0.5 -0.5)"/><circle class="country-pin" cx="11" cy="19" r="2"/>
	</g>
</svg>
