<svg version="1.1" id="Layer_1" xmlns="http://www.w3.org/2000/svg" xmlns:xlink="http://www.w3.org/1999/xlink" x="0px" y="0px"
	 width="20px" height="16px" viewBox="0 0 20 16" style="enable-background:new 0 0 20 16;" xml:space="preserve">
	<path d="M20,1.9c-0.8,0.3-1.5,0.5-2.4,0.6c0.9-0.5,1.5-1.3,1.8-2.2c-0.8,0.5-1.7,0.8-2.6,1c-1.6-1.6-4.2-1.7-5.8-0.1
		C10.2,1.9,9.8,2.9,9.8,4c0,0.3,0,0.6,0.1,0.9C6.6,4.8,3.5,3.3,1.4,0.7C0.3,2.6,0.9,5,2.7,6.1C2,6.1,1.4,5.9,0.8,5.6v0
		c0,1.9,1.4,3.6,3.3,4C3.7,9.7,3.4,9.8,3,9.8c-0.3,0-0.5,0-0.8-0.1c0.6,1.7,2.1,2.8,3.8,2.8c-1.5,1.1-3.3,1.7-5.1,1.7
		c-0.3,0-0.6,0-1-0.1C1.9,15.4,4.1,16,6.3,16c6.4,0.1,11.6-5,11.7-11.3c0-0.1,0-0.1,0-0.2c0-0.2,0-0.3,0-0.5
		C18.8,3.4,19.5,2.7,20,1.9z"/>
</svg>
