<!-- Created with Inkscape (http://www.inkscape.org/) -->
<svg version="1.1" id="logo-stacked" xmlns="http://www.w3.org/2000/svg" xmlns:xlink="http://www.w3.org/1999/xlink" x="0px" y="0px"
	 width="104.6px" height="51.8px" viewBox="0 0 104.6 51.8" style="enable-background:new 0 0 104.6 51.8;" xml:space="preserve">
<path d="M12.8,13.1l-2.7-7.9H10l-2.8,7.9H12.8z M12.5,0l8,21.4h-4.9L14,16.6H6l-1.7,4.8h-4.7L7.7,0
	C7.7,0,12.5,0,12.5,0z M40.6,21.4L37.9,11h-0.1l-2.6,10.4h-4.4L25.8,5.9h4.5l2.9,10.5h0.1l2.6-10.5H40l2.6,10.5h0.1l2.8-10.5h4.4
	L45,21.4H40.6L40.6,21.4z M54.8,15.5c0.1,0.6,0.3,1.1,0.6,1.6c0.3,0.5,0.7,0.9,1.2,1.1c0.6,0.3,1.2,0.4,1.8,0.4
	c0.6,0,1.3-0.1,1.8-0.4c0.5-0.3,0.9-0.7,1.2-1.1c0.3-0.5,0.5-1,0.6-1.6c0.1-0.6,0.2-1.2,0.2-1.8c0-0.6-0.1-1.2-0.2-1.8
	c-0.1-0.6-0.3-1.1-0.6-1.6c-0.3-0.5-0.7-0.8-1.2-1.1c-0.6-0.3-1.2-0.5-1.8-0.4c-1.2-0.1-2.3,0.5-3,1.6c-0.3,0.5-0.5,1-0.6,1.6
	c-0.1,0.6-0.2,1.2-0.2,1.8C54.6,14.3,54.6,14.9,54.8,15.5z M50.9,10.3c0.7-1.9,2.2-3.5,4.1-4.2c1.1-0.4,2.2-0.6,3.3-0.6
	c1.1,0,2.3,0.2,3.3,0.6c1.9,0.7,3.5,2.3,4.2,4.2c0.4,1.1,0.6,2.2,0.6,3.4c0,1.1-0.2,2.3-0.6,3.4c-0.4,1-0.9,1.8-1.6,2.6
	c-0.7,0.7-1.6,1.3-2.5,1.6c-1.1,0.4-2.2,0.6-3.3,0.6c-1.1,0-2.2-0.2-3.3-0.6c-0.9-0.4-1.8-0.9-2.5-1.6c-0.7-0.7-1.3-1.6-1.6-2.6
	c-0.4-1.1-0.6-2.2-0.6-3.4C50.3,12.5,50.5,11.4,50.9,10.3z M72.9,5.9v2.9h0.1c0.2-0.5,0.5-0.9,0.8-1.3c0.3-0.4,0.7-0.8,1.2-1.1
	c0.4-0.3,0.9-0.5,1.4-0.7c0.5-0.2,1-0.2,1.6-0.2c0.3,0,0.6,0.1,0.9,0.2v4c-0.2,0-0.4-0.1-0.7-0.1c-0.3,0-0.5,0-0.8,0
	c-0.7,0-1.4,0.1-2,0.4c-0.5,0.2-1,0.6-1.3,1.1c-0.3,0.5-0.6,1-0.7,1.6c-0.1,0.6-0.2,1.3-0.2,1.9v7h-4.3V5.9H72.9L72.9,5.9z M86.4,0
	v21.4h-4.3V0C82.1,0,86.4,0,86.4,0z M100.3,11.8c-0.1-0.6-0.3-1.1-0.6-1.6c-0.3-0.4-0.7-0.8-1.1-1.1c-0.5-0.3-1.1-0.4-1.7-0.4
	c-0.6,0-1.2,0.1-1.8,0.4c-0.5,0.3-0.9,0.7-1.2,1.1c-0.3,0.5-0.5,1-0.6,1.6C93.1,12.4,93,13,93,13.6c0,0.6,0.1,1.2,0.2,1.8
	c0.1,0.6,0.4,1.1,0.7,1.6c0.3,0.5,0.7,0.9,1.2,1.1c0.5,0.3,1.1,0.5,1.7,0.4c0.6,0,1.2-0.1,1.8-0.4c0.5-0.3,0.9-0.7,1.1-1.1
	c0.3-0.5,0.5-1,0.6-1.6c0.1-0.6,0.2-1.2,0.2-1.9C100.5,13,100.4,12.4,100.3,11.8L100.3,11.8z M100.4,19.4c-0.5,0.8-1.1,1.4-2,1.8
	c-0.9,0.4-1.8,0.6-2.7,0.6c-1.1,0-2.1-0.2-3.1-0.7c-0.9-0.4-1.6-1.1-2.2-1.8c-0.6-0.8-1-1.7-1.3-2.7c-0.3-1-0.4-2.1-0.4-3.1
	c0-1,0.1-2,0.4-3c0.3-0.9,0.7-1.8,1.3-2.6c1.2-1.6,3.1-2.5,5.1-2.5c0.9,0,1.8,0.2,2.6,0.6c0.8,0.4,1.5,1,2,1.7h0.1V0h4.3v21.4h-4.1
	L100.4,19.4L100.4,19.4L100.4,19.4z M4.4,45.5c0.1,0.6,0.3,1.1,0.6,1.6c0.3,0.5,0.7,0.9,1.2,1.1c0.6,0.3,1.2,0.4,1.8,0.4
	c0.6,0,1.3-0.1,1.8-0.4c0.5-0.3,0.9-0.7,1.2-1.1c0.3-0.5,0.5-1,0.6-1.6c0.1-0.6,0.2-1.2,0.2-1.8c0-0.6-0.1-1.2-0.2-1.8
	c-0.1-0.6-0.3-1.1-0.6-1.6c-0.3-0.5-0.7-0.8-1.2-1.1c-0.6-0.3-1.2-0.5-1.8-0.4c-0.6,0-1.3,0.1-1.8,0.4c-0.5,0.3-0.9,0.7-1.2,1.1
	c-0.3,0.5-0.5,1-0.6,1.6c-0.1,0.6-0.2,1.2-0.2,1.8C4.3,44.3,4.3,44.9,4.4,45.5z M0.6,40.3c0.7-1.9,2.2-3.5,4.1-4.2
	c1.1-0.4,2.2-0.6,3.3-0.6c1.1,0,2.3,0.2,3.3,0.6c1.9,0.7,3.5,2.3,4.2,4.2c0.4,1.1,0.6,2.2,0.6,3.4c0,1.1-0.2,2.3-0.6,3.4
	c-0.4,1-0.9,1.8-1.6,2.6c-0.7,0.7-1.6,1.3-2.5,1.6c-1.1,0.4-2.2,0.6-3.3,0.6c-1.1,0-2.2-0.2-3.3-0.6c-0.9-0.4-1.8-0.9-2.5-1.6
	C1.5,48.9,0.9,48,0.6,47C0.2,46,0,44.8,0,43.7C0,42.5,0.2,41.4,0.6,40.3z M16.9,38.7v-2.8h2.5v-1.2c0-1.3,0.4-2.5,1.3-3.4
	c1.1-1,2.5-1.4,3.9-1.3c0.4,0,0.8,0,1.1,0c0.4,0,0.8,0.1,1.1,0.1v3.2c-0.5-0.1-1-0.1-1.6-0.1c-0.5,0-0.9,0.1-1.2,0.4
	c-0.3,0.4-0.4,0.9-0.4,1.4v0.9h2.9v2.8h-2.9v12.7h-4.3V38.7H16.9z M52.3,33.5V30h4.3v3.5H52.3z M56.6,35.9v15.5h-4.3V35.9H56.6z
	 M64.1,30v21.4h-4.3V30H64.1z"/>
<path d="M42,36.3c2.3,3.2,4,6.2,4,7.3v0l0,0c0,2.3-1.8,4.1-4,4.2c-2.2-0.1-4-1.9-4-4.2l0-0.1l0,0
	C38,42.4,39.7,39.4,42,36.3 M42,29.9c0,0-8,9.2-8,13.7c0,0,0,0,0,0c-0.1,4.5,3.5,8.2,8,8.2c4.5-0.1,8.1-3.8,8-8.2
	C50,39,42,29.9,42,29.9L42,29.9z"/>
</svg>
