<!-- Created with Inkscape (http://www.inkscape.org/) -->
<svg version="1.1" id="unstacked-logo" xmlns="http://www.w3.org/2000/svg" xmlns:xlink="http://www.w3.org/1999/xlink" x="0px" y="0px"
	 width="174px" height="27.2px" viewBox="0 0 174 27.2" style="enable-background:new 0 0 174 27.2;" xml:space="preserve">
<path d="M12.8,18.3l-2.6-7.9h-0.1l-2.7,7.9H12.8L12.8,18.3z M12.6,5.1l7.8,21.6h-4.8L14,21.9H6.2
	l-1.6,4.8H0L7.9,5.1H12.6L12.6,5.1z M39.3,26.7l-2.7-10.5h-0.1L34,26.7h-4.3l-4.8-15.6h4.4l2.8,10.6h0.1l2.5-10.6h4l2.6,10.6h0.1
	l2.8-10.6h4.3l-4.8,15.6H39.3L39.3,26.7z M53.6,20.7c0.1,0.6,0.3,1.1,0.6,1.6c0.3,0.5,0.7,0.9,1.1,1.1c0.5,0.3,1.1,0.4,1.8,0.4
	c0.6,0,1.2-0.1,1.8-0.4c0.5-0.3,0.9-0.7,1.1-1.1c0.3-0.5,0.5-1,0.6-1.6c0.1-0.6,0.2-1.2,0.2-1.8c0-0.6-0.1-1.2-0.2-1.8
	c-0.1-0.6-0.3-1.1-0.6-1.6c-0.3-0.5-0.7-0.9-1.1-1.1c-0.5-0.3-1.1-0.5-1.8-0.4c-0.6,0-1.2,0.1-1.8,0.4c-0.5,0.3-0.8,0.7-1.1,1.1
	c-0.3,0.5-0.5,1-0.6,1.6c-0.1,0.6-0.2,1.2-0.2,1.8C53.5,19.5,53.5,20.1,53.6,20.7L53.6,20.7z M49.9,15.5c0.3-1,0.9-1.9,1.6-2.6
	c0.7-0.7,1.5-1.3,2.5-1.7c1-0.4,2.1-0.6,3.2-0.6c1.1,0,2.2,0.2,3.2,0.6c0.9,0.4,1.8,0.9,2.5,1.7c0.7,0.7,1.2,1.6,1.6,2.6
	c0.4,1.1,0.6,2.2,0.6,3.4c0,1.2-0.2,2.3-0.6,3.4c-0.3,1-0.9,1.8-1.6,2.6c-0.7,0.7-1.5,1.3-2.5,1.6c-1,0.4-2.1,0.6-3.2,0.6
	c-1.1,0-2.2-0.2-3.2-0.6c-0.9-0.4-1.8-0.9-2.5-1.6c-0.7-0.7-1.2-1.6-1.6-2.6c-0.4-1.1-0.6-2.2-0.6-3.4
	C49.3,17.7,49.5,16.6,49.9,15.5z M71.3,11.1V14h0.1c0.2-0.5,0.5-0.9,0.8-1.3c0.3-0.4,0.7-0.8,1.1-1.1c0.4-0.3,0.9-0.5,1.4-0.7
	c0.5-0.2,1-0.2,1.5-0.2c0.3,0,0.6,0.1,0.9,0.2v4c-0.2,0-0.4-0.1-0.7-0.1c-0.3,0-0.5,0-0.8,0c-0.7,0-1.3,0.1-1.9,0.4
	c-0.5,0.2-0.9,0.6-1.3,1.1c-0.3,0.5-0.6,1-0.7,1.6c-0.1,0.6-0.2,1.3-0.2,2v7h-4.1V11.1H71.3L71.3,11.1z M83.2,5.1v21.6h-4.1V5.1
	H83.2z M96.7,17c-0.1-0.6-0.3-1.1-0.6-1.6c-0.3-0.4-0.7-0.8-1.1-1.1c-0.5-0.3-1.1-0.4-1.7-0.4c-1.2-0.1-2.3,0.5-2.8,1.5
	c-0.3,0.5-0.5,1-0.6,1.6c-0.1,0.6-0.2,1.2-0.2,1.9c0,0.6,0.1,1.2,0.2,1.8c0.1,0.6,0.3,1.1,0.7,1.6c0.3,0.5,0.7,0.9,1.1,1.2
	c0.5,0.3,1.1,0.5,1.6,0.4c1.2,0.1,2.2-0.5,2.8-1.6c0.3-0.5,0.5-1.1,0.6-1.6c0.1-0.6,0.2-1.2,0.2-1.9C96.9,18.2,96.8,17.6,96.7,17
	L96.7,17z M96.9,24.7c-0.4,0.8-1.1,1.4-1.9,1.8c-0.8,0.4-1.7,0.6-2.7,0.6c-1,0-2.1-0.2-3-0.7c-0.8-0.4-1.6-1.1-2.1-1.8
	c-0.6-0.8-1-1.7-1.3-2.7c-0.3-1-0.4-2.1-0.4-3.1c0-1,0.1-2.1,0.4-3c0.3-0.9,0.7-1.8,1.3-2.6c0.6-0.7,1.3-1.4,2.1-1.8
	c0.9-0.5,1.9-0.7,2.9-0.7c0.9,0,1.8,0.2,2.6,0.6c0.8,0.4,1.5,1,1.9,1.7h0.1V5.1h4.1v21.6h-3.9L96.9,24.7L96.9,24.7L96.9,24.7z
	 M113.6,20.7c0.1,0.6,0.3,1.1,0.6,1.6c0.3,0.5,0.7,0.9,1.1,1.1c0.5,0.3,1.1,0.4,1.8,0.4c0.6,0,1.2-0.1,1.8-0.4
	c0.5-0.3,0.9-0.7,1.1-1.1c0.3-0.5,0.5-1,0.6-1.6c0.1-0.6,0.2-1.2,0.2-1.8c0-0.6-0.1-1.2-0.2-1.8c-0.1-0.6-0.3-1.1-0.6-1.6
	c-0.3-0.5-0.7-0.9-1.1-1.1c-0.5-0.3-1.1-0.5-1.8-0.4c-0.6,0-1.2,0.1-1.8,0.4c-0.5,0.3-0.8,0.7-1.1,1.1c-0.3,0.5-0.5,1-0.6,1.6
	c-0.1,0.6-0.2,1.2-0.2,1.8C113.5,19.5,113.5,20.1,113.6,20.7L113.6,20.7z M109.9,15.5c0.3-1,0.9-1.9,1.6-2.6
	c0.7-0.7,1.5-1.3,2.5-1.7c1-0.4,2.1-0.6,3.2-0.6c1.1,0,2.2,0.2,3.2,0.6c0.9,0.4,1.8,0.9,2.5,1.7c0.7,0.7,1.2,1.6,1.6,2.6
	c0.4,1.1,0.6,2.2,0.6,3.4c0,1.2-0.2,2.3-0.6,3.4c-0.3,1-0.9,1.8-1.6,2.6c-0.7,0.7-1.5,1.3-2.5,1.6c-1,0.4-2.1,0.6-3.2,0.6
	c-1.1,0-2.2-0.2-3.2-0.6c-0.9-0.4-1.8-0.9-2.5-1.6c-0.7-0.7-1.2-1.6-1.6-2.6c-0.4-1.1-0.6-2.2-0.6-3.4
	C109.3,17.7,109.5,16.6,109.9,15.5L109.9,15.5z M125.7,13.9v-2.9h2.5V9.8c0-1.3,0.4-2.5,1.3-3.4c1-1,2.4-1.4,3.8-1.3
	c0.4,0,0.7,0,1.1,0s0.7,0.1,1.1,0.1v3.2c-0.5-0.1-1-0.1-1.5-0.1c-0.4,0-0.9,0.1-1.2,0.4c-0.3,0.4-0.4,0.9-0.4,1.4v0.9h2.9v2.9h-2.9
	v12.8h-4.1V13.9L125.7,13.9L125.7,13.9z M162.6,8.6V5.1h4.1v3.5L162.6,8.6L162.6,8.6z M166.8,11.1v15.6h-4.1V11.1L166.8,11.1
	L166.8,11.1z M174,5.1v21.6h-4.1V5.1H174z"/>
<path d="M150.1,6.3c3.7,4.8,6,9.1,6,10.7c0,3.3-2.7,6.1-6,6.2c-3.3-0.1-6-2.8-6-6.2
	C144.1,15.4,146.4,11.1,150.1,6.3 M150.1,0c0,0-10,11.4-10,17c-0.1,5.6,4.4,10.1,10,10.2c5.6-0.1,10-4.6,10-10.2
	C160.1,11.4,150.1,0,150.1,0L150.1,0z"/>
</svg>
