<svg xmlns="http://www.w3.org/2000/svg" width="120.03" height="42.97" viewBox="0 0 120.03 42.97">
  <defs>
    <style>
      .cls-1 {
        fill: #95919d;
        fill-rule: evenodd;
      }
    </style>
  </defs>
  <path id="GSM_logo" data-name="GSM logo" class="cls-1" d="M3740.25,1095.18c0-2.87-2.25-3.01-3.65-3.15v-0.82l7.35-1.15v5.75h0.1c0.58-1.68,3.03-5.75,6.92-5.75,4.52,0,5.72,2.35,5.72,5.75h0.09c0.72-1.63,2.69-5.75,7.02-5.75,5.72,0,5.72,3.83,5.72,7.61v15.17h-3.7v-14.4c0-3.54,0-6.03-3.27-6.03-2.5,0-5.82,4.4-5.82,8.85v11.58h-3.69v-15.45c0-2.59,0-4.98-3.18-4.98-3.07,0-5.91,5.07-5.91,9.04v11.39h-3.7v-17.66Zm-15.38,21.7c0-.83-0.38-0.8-1.21-0.89v-0.21l2.26-.28v6.57c0,0.99,0,1.06.99,1.06h1.07c0.91,0,.94-0.5,1.04-1.31h0.37l-0.06,1.78h-4.46v-6.72Zm5.83,2.68c0-2.57.76-4.19,3.16-4.19s3.13,1.8,3.13,4.19c0,2.55-.74,4.18-3.13,4.18-2.48,0-3.16-1.79-3.16-4.18m5.11,0c0-1.52-.08-3.72-1.95-3.72-1.85,0-1.98,2.06-1.98,3.72,0,1.5.09,3.71,1.98,3.71,1.82,0,1.95-2.06,1.95-3.71m3.53-2.64c0-.96-0.16-1.04-1.19-1.21v-0.2h2.39l3.75,6.56h0.02v-6.56h0.62v8.09h-0.91l-4.03-7.06h-0.03v7.06h-0.62v-6.68Zm8.4-.04c0-.92-0.15-0.97-1.2-1.17v-0.2h2.55c2.54,0,4.4.49,4.4,4.05s-1.95,4.04-4.45,4.04h-1.3v-6.72Zm1.05,5.36c0,0.59,0,.89.63,0.89,1.93,0,2.89-1.06,2.89-3.57,0-2.07-.56-3.59-2.71-3.59-0.72,0-.81.12-0.81,0.91v5.36Zm6.53-2.68c0-2.57.75-4.19,3.15-4.19s3.13,1.8,3.13,4.19c0,2.55-.75,4.18-3.13,4.18-2.48,0-3.15-1.79-3.15-4.18m5.1,0c0-1.52-.08-3.72-1.95-3.72-1.84,0-1.97,2.06-1.97,3.72,0,1.5.08,3.71,1.97,3.71,1.82,0,1.95-2.06,1.95-3.71m3.5-2.64c0-.96-0.16-1.04-1.19-1.21v-0.2h2.38l3.74,6.56h0.02v-6.56h0.62v8.09h-0.9l-4.03-7.06h-0.02v7.06h-0.62v-6.68Zm-30.14-20.75c-0.6-1.78-1.65-4.21-4.74-4.21-2.81,0-4.08,1.32-4.08,3.05,0,3.26,5.85,4.6,8.45,6.53a5.807,5.807,0,0,1,2.75,5.27c0,4.68-3.79,6.41-9.06,6.41a21.912,21.912,0,0,1-5.89-.86l-0.3-5.29h1.18a5.578,5.578,0,0,0,5.39,4.55c3.02,0,4.91-1.94,4.91-3.58,0-3.26-4.43-4.69-7.44-6.41-2.08-1.3-3.74-2.63-3.74-5.29,0-3.59,2.85-5.99,7.92-5.99a30.549,30.549,0,0,1,5.5.73l0.35,5.1Zm-18.45-6.06a11.831,11.831,0,0,0-1.33-.72c3.18-2.97,8.17-3.24,8.81-.37,0.53,2.38-2.44,3.36-4.15,1.01-0.98-1.34-2.73-.26-3.33.08m-11.3,16.47s-6.5-1.83-6.22-8.41c0.28-6.79,6.67-8.92,11.44-8.84,4.38,0.07,9.91,3.19,9.77,9.46-0.1,4.68-2.22,8.24-11.34,8.73-4.67.25-5.84,1.04-5.87,2.67-0.03,1.22,2,1.36,3.4,1.52,6.58,0.76,17.28-.94,16.95,8.72-0.36,10.47-12.79,9.52-14.26,9.55-2.42.03-11.87-1.58-10.82-8.16,0.82-5.2,5.65-4.78,6.63-3.16-3.46.06-6.22,9.85,5.34,9.97,9.34,0.09,9.23-5.63,9.24-6.43,0.11-6.51-10.09-5.26-14.29-5.61-5.95-.48-7.83-8,0.03-10.01m4.35-15.96c-3.72,0-5.74,3.49-5.74,7.81s1.91,7.81,5.74,7.81c3.72,0,5.74-3.5,5.74-7.81s-2.09-7.81-5.74-7.81m65.56-.19h2.07a1.988,1.988,0,0,1,1.8.99,3.077,3.077,0,0,1,.32,1.95,3.045,3.045,0,0,1-.33,1.97,2.133,2.133,0,0,1-1.85.97h-2.01v-5.88Zm0.9,5.04h1.07a1.236,1.236,0,0,0,1.1-.51,5.428,5.428,0,0,0-.04-3.19,1.148,1.148,0,0,0-1.06-.5h-1.07v4.2Zm5.11-5.04h0.85v0.84h-0.85v-0.84Zm0,1.69h0.85v4.19h-0.85v-4.19Zm2.93,2.91a1.741,1.741,0,0,0,1.33.54,0.676,0.676,0,0,0,.83-0.54,0.44,0.44,0,0,0-.52-0.41l-0.75-.07a1.185,1.185,0,0,1-1.21-1.19,1.353,1.353,0,0,1,1.57-1.29,2.431,2.431,0,0,1,1.65.57l-0.52.61a1.873,1.873,0,0,0-1.13-.38c-0.54,0-.72.21-0.72,0.5,0,0.18.13,0.36,0.55,0.4l0.7,0.05a1.158,1.158,0,0,1,1.22,1.25,1.483,1.483,0,0,1-1.74,1.29,2.626,2.626,0,0,1-1.85-.75Zm4.74-4.18h0.84v1.27h0.62v0.65h-0.62v2.44a0.261,0.261,0,0,0,.3.31h0.32v0.79h-0.44a0.958,0.958,0,0,1-1.02-1.03v-2.51h-0.43v-0.65h0.43v-1.27Zm3.11-.42h0.85v0.84h-0.85v-0.84Zm0,1.69h0.85v4.19h-0.85v-4.19Zm2.8,0h0.84v0.45h0.02a1.368,1.368,0,0,1,1.1-.5,1.415,1.415,0,0,1,1.4,1.46v2.78h-0.85v-2.49a0.838,0.838,0,1,0-1.67,0v2.49h-0.84v-4.19Zm8.38,3.52a1.959,1.959,0,0,1-1.51.72,2.159,2.159,0,0,1,0-4.29,1.967,1.967,0,0,1,1.51.73l-0.62.55a1.126,1.126,0,0,0-.85-0.43,1.318,1.318,0,0,0,0,2.6,1.105,1.105,0,0,0,.85-0.44Zm1.47-4.79h0.85v1.27h0.61v0.65h-0.61v2.44a0.258,0.258,0,0,0,.3.31h0.31v0.79h-0.44a0.958,0.958,0,0,1-1.02-1.03v-2.51h-0.42v-0.65h0.42v-1.27Zm3.12-.42h0.84v0.84h-0.84v-0.84Zm0,1.69h0.84v4.19h-0.84v-4.19Zm2.2,0h0.89l0.99,2.94h0.02l0.99-2.94h0.89l-1.54,4.19h-0.7Zm5.68,2.42a0.938,0.938,0,0,0,1,1.03,1.3,1.3,0,0,0,.92-0.41l0.62,0.53a1.98,1.98,0,0,1-1.52.67c-0.87,0-1.87-.41-1.87-2.13,0-1.63.92-2.16,1.74-2.16a1.709,1.709,0,0,1,1.73,1.77v0.7h-2.62Zm1.77-.7a0.889,0.889,0,1,0-1.77,0h1.77Zm-42.28,4.86h0.84v2.14h0.02a1.368,1.368,0,0,1,1.1-.5,1.415,1.415,0,0,1,1.4,1.46v2.78h-0.85v-2.49a0.838,0.838,0,1,0-1.67,0v2.49h-0.84v-5.88Zm5.31-.01h0.85v0.85h-0.85v-0.85Zm0,1.7h0.85v4.19h-0.85v-4.19Zm5.17,3.75a1.5,1.5,0,0,1-1.09.49,1.4,1.4,0,0,1-1.11-.51c-0.25-.32-0.32-0.47-0.32-1.63s0.07-1.32.32-1.64a1.4,1.4,0,0,1,1.11-.51,1.45,1.45,0,0,1,1.09.5v-0.45h0.84v4.09a1.716,1.716,0,0,1-1.82,1.85,2.03,2.03,0,0,1-1.47-.71l0.66-.52a1.194,1.194,0,0,0,.82.38,0.873,0.873,0,0,0,.97-0.91v-0.43Zm-1.51-.67a0.864,0.864,0,0,0,.68.32,0.852,0.852,0,0,0,.66-0.32,1.325,1.325,0,0,0,.17-0.98,1.31,1.31,0,0,0-.17-0.98,0.828,0.828,0,0,0-.66-0.33,0.839,0.839,0,0,0-.68.33,1.327,1.327,0,0,0-.16.98,1.343,1.343,0,0,0,.16.98m4.28-4.77h0.85v2.14h0.01a1.368,1.368,0,0,1,1.1-.5,1.415,1.415,0,0,1,1.4,1.46v2.78h-0.85v-2.49a0.834,0.834,0,1,0-1.66,0v2.49h-0.85v-5.88Zm5.93,4.1a0.941,0.941,0,0,0,1,1.04,1.32,1.32,0,0,0,.92-0.41l0.62,0.52a1.957,1.957,0,0,1-1.52.68c-0.87,0-1.87-.41-1.87-2.13,0-1.63.92-2.16,1.73-2.16a1.711,1.711,0,0,1,1.74,1.77v0.69h-2.62Zm1.77-.69a0.89,0.89,0,1,0-1.77,0h1.77Zm2.57-1.72h0.84v0.45h0.02a1.368,1.368,0,0,1,1.1-.5,1.4,1.4,0,0,1,.88.32l-0.62.73a0.829,0.829,0,0,0-.55-0.21,0.805,0.805,0,0,0-.83.88v2.52h-0.84v-4.19Zm-22.88,10.68a0.933,0.933,0,0,0,1,1.03,1.333,1.333,0,0,0,.92-0.4l0.62,0.52a1.957,1.957,0,0,1-1.52.68c-0.86,0-1.87-.42-1.87-2.14,0-1.63.92-2.15,1.74-2.15a1.694,1.694,0,0,1,1.73,1.76v0.7h-2.62Zm1.77-.7a0.889,0.889,0,1,0-1.77,0h1.77Zm5.09,2.04a1.5,1.5,0,0,1-1.09.49,1.355,1.355,0,0,1-1.13-.55,4.417,4.417,0,0,1,0-3.2,1.375,1.375,0,0,1,1.13-.54,1.553,1.553,0,0,1,1.09.49v-2.14h0.84v5.89h-0.84v-0.44Zm-1.67-1.66c0,0.65.04,1.3,0.84,1.3,0.78,0,.83-0.69.83-1.3s-0.05-1.3-.83-1.3c-0.8,0-.84.65-0.84,1.3m4.29-2.09h0.85v2.49a0.837,0.837,0,1,0,1.67,0v-2.49h0.84v4.19h-0.84v-0.45h-0.02a1.362,1.362,0,0,1-1.09.5,1.417,1.417,0,0,1-1.41-1.46v-2.78Zm8.38,3.51a1.967,1.967,0,0,1-1.51.73,2.159,2.159,0,0,1,0-4.29,1.959,1.959,0,0,1,1.51.72l-0.62.56a1.09,1.09,0,0,0-.85-0.44,1.318,1.318,0,0,0,0,2.6,1.09,1.09,0,0,0,.85-0.44Zm3.63,0.3h-0.01a1.067,1.067,0,0,1-1.04.43,1.322,1.322,0,0,1-1.49-1.29,1.24,1.24,0,0,1,1.37-1.24H3796v-0.43c0-.4-0.26-0.54-0.86-0.54a0.8,0.8,0,0,0-.8.32l-0.66-.5a1.583,1.583,0,0,1,1.42-.61c1.04,0,1.75.34,1.75,1.38v2.86H3796v-0.38Zm0-1.4h-1.01c-0.5,0-.73.2-0.73,0.5,0,0.28.22,0.53,0.8,0.53,0.7,0,.94-0.07.94-0.73v-0.3Zm2.83-3.69h0.84v1.27h0.62v0.65h-0.62v2.44a0.258,0.258,0,0,0,.3.31h0.32v0.8h-0.44a0.966,0.966,0,0,1-1.02-1.04v-2.51h-0.43v-0.65h0.43v-1.27Zm3.11-.42h0.85v0.84h-0.85v-0.84Zm0,1.69h0.85v4.2h-0.85v-4.2Zm3.05,0.49a1.8,1.8,0,0,1,2.55,0,3.047,3.047,0,0,1,0,3.22,1.775,1.775,0,0,1-2.55,0,3.047,3.047,0,0,1,0-3.22m1.95,0.61a0.858,0.858,0,0,0-.68-0.3,0.873,0.873,0,0,0-.68.3,2.6,2.6,0,0,0,0,2,0.873,0.873,0,0,0,.68.3,0.858,0.858,0,0,0,.68-0.3,1.426,1.426,0,0,0,.21-0.99,1.456,1.456,0,0,0-.21-1.01m2.78-1.09h0.84v0.44h0.02a1.36,1.36,0,0,1,1.1-.49,1.406,1.406,0,0,1,1.4,1.45v2.79h-0.85v-2.5a0.837,0.837,0,1,0-1.67,0v2.5h-0.84v-4.19Z" transform="translate(-3696.97 -1087)"/>
</svg>
