<svg id="Layer_1" data-name="Layer 1" xmlns="http://www.w3.org/2000/svg" width="120" height="42.98" viewBox="0 0 120 42.98"><defs><style>.cls-1{fill:#595a5c;}.cls-2{fill:#d50031;}</style></defs><title>logo-gsm-color</title><path class="cls-1" d="M76.95,3.42H79a2,2,0,0,1,1.8,1,3.09,3.09,0,0,1,.32,2c0,1.32-.07,1.55-0.33,2A2.11,2.11,0,0,1,79,9.3h-2V3.42Zm0.9,5h1.07A1.23,1.23,0,0,0,80,7.95a2.37,2.37,0,0,0,.22-1.55A2.41,2.41,0,0,0,80,4.76a1.14,1.14,0,0,0-1.05-.5H77.84v4.2Z" transform="translate(0)"/><rect class="cls-1" x="82.96" y="3.42" width="0.85" height="0.84"/><rect class="cls-1" x="82.96" y="5.11" width="0.85" height="4.19"/><path class="cls-1" d="M85.88,8a1.77,1.77,0,0,0,1.33.54A0.68,0.68,0,0,0,88,8a0.44,0.44,0,0,0-.51-0.41l-0.75-.07a1.18,1.18,0,0,1-1.21-1.19,1.35,1.35,0,0,1,1.57-1.29,2.42,2.42,0,0,1,1.65.57l-0.52.61a1.88,1.88,0,0,0-1.13-.39c-0.54,0-.72.22-0.72,0.5s0.13,0.36.56,0.4l0.7,0a1.17,1.17,0,0,1,1.22,1.26c0,0.82-.76,1.29-1.74,1.29a2.66,2.66,0,0,1-1.85-.75Z" transform="translate(0)"/><path class="cls-1" d="M90.62,3.84h0.85V5.11h0.61V5.76H91.47V8.2a0.26,0.26,0,0,0,.3.31h0.31V9.3H91.64a1,1,0,0,1-1-1V5.76H90.2V5.11h0.42V3.84Z" transform="translate(0)"/><rect class="cls-1" x="93.73" y="3.42" width="0.85" height="0.84"/><rect class="cls-1" x="93.73" y="5.11" width="0.85" height="4.19"/><path class="cls-1" d="M96.53,5.11h0.85V5.56h0a1.35,1.35,0,0,1,1.1-.5,1.41,1.41,0,0,1,1.4,1.45V9.3H99V6.81a0.84,0.84,0,1,0-1.67,0V9.3H96.53V5.11Z" transform="translate(0)"/><path class="cls-1" d="M104.92,8.63a2,2,0,0,1-1.51.73,1.88,1.88,0,0,1-1.91-2.14,1.89,1.89,0,0,1,1.91-2.15,2,2,0,0,1,1.51.73l-0.62.55a1.11,1.11,0,0,0-.85-0.44,1.07,1.07,0,0,0-1.1,1.31,1.07,1.07,0,0,0,1.1,1.3,1.1,1.1,0,0,0,.85-0.44Z" transform="translate(0)"/><path class="cls-1" d="M106.39,3.84h0.85V5.11h0.61V5.76h-0.61V8.2a0.26,0.26,0,0,0,.3.31h0.31V9.3h-0.44a1,1,0,0,1-1-1V5.76H106V5.11h0.42V3.84Z" transform="translate(0)"/><rect class="cls-1" x="109.5" y="3.42" width="0.85" height="0.84"/><rect class="cls-1" x="109.5" y="5.11" width="0.85" height="4.19"/><polygon class="cls-1" points="111.7 5.11 112.6 5.11 113.58 8.05 113.6 8.05 114.59 5.11 115.49 5.11 113.94 9.3 113.24 9.3 111.7 5.11"/><path class="cls-1" d="M117.38,7.53a0.94,0.94,0,0,0,1,1,1.33,1.33,0,0,0,.92-0.4l0.62,0.52a1.94,1.94,0,0,1-1.52.68c-0.86,0-1.87-.41-1.87-2.13s0.92-2.16,1.74-2.16A1.7,1.7,0,0,1,120,6.83V7.53h-2.62Zm1.78-.69a0.89,0.89,0,1,0-1.78,0h1.78Z" transform="translate(0)"/><path class="cls-1" d="M76.87,11.69h0.85v2.14h0a1.35,1.35,0,0,1,1.1-.5,1.41,1.41,0,0,1,1.4,1.45v2.79H79.39v-2.5a0.84,0.84,0,1,0-1.67,0v2.5H76.87V11.69Z" transform="translate(0)"/><rect class="cls-1" x="82.19" y="11.69" width="0.85" height="0.84"/><rect class="cls-1" x="82.19" y="13.38" width="0.85" height="4.19"/><path class="cls-1" d="M87.35,17.13a1.49,1.49,0,0,1-1.09.49,1.41,1.41,0,0,1-1.11-.51c-0.24-.31-0.31-0.47-0.31-1.63s0.07-1.32.31-1.64a1.41,1.41,0,0,1,1.11-.51,1.43,1.43,0,0,1,1.09.5V13.38H88.2v4.09a1.72,1.72,0,0,1-1.83,1.84,2,2,0,0,1-1.46-.7l0.66-.52a1.2,1.2,0,0,0,.82.38,0.87,0.87,0,0,0,1-.91V17.13Zm-1.5-.68a0.85,0.85,0,0,0,1.34,0,1.32,1.32,0,0,0,.17-1,1.33,1.33,0,0,0-.17-1,0.85,0.85,0,0,0-1.34,0,1.33,1.33,0,0,0-.17,1,1.32,1.32,0,0,0,.17,1" transform="translate(0)"/><path class="cls-1" d="M90.12,11.69H91v2.14h0a1.35,1.35,0,0,1,1.1-.5,1.41,1.41,0,0,1,1.4,1.45v2.79H92.64v-2.5a0.84,0.84,0,1,0-1.67,0v2.5H90.12V11.69Z" transform="translate(0)"/><path class="cls-1" d="M96.05,15.8a0.94,0.94,0,0,0,1,1,1.32,1.32,0,0,0,.92-0.4l0.61,0.52a1.94,1.94,0,0,1-1.52.68c-0.86,0-1.87-.41-1.87-2.13s0.92-2.16,1.73-2.16a1.7,1.7,0,0,1,1.74,1.77v0.7H96.05Zm1.78-.7a0.89,0.89,0,1,0-1.78,0h1.78Z" transform="translate(0)"/><path class="cls-1" d="M100.39,13.38h0.85v0.45h0a1.35,1.35,0,0,1,1.1-.5,1.4,1.4,0,0,1,.88.32l-0.61.73a0.83,0.83,0,0,0-.56-0.21,0.8,0.8,0,0,0-.82.88v2.52h-0.85V13.38Z" transform="translate(0)"/><path class="cls-1" d="M77.51,24.06a0.94,0.94,0,0,0,1,1,1.32,1.32,0,0,0,.92-0.41l0.61,0.52a1.94,1.94,0,0,1-1.52.68c-0.86,0-1.87-.41-1.87-2.13s0.92-2.16,1.73-2.16a1.7,1.7,0,0,1,1.74,1.77v0.7H77.51Zm1.78-.7a0.89,0.89,0,1,0-1.78,0h1.78Z" transform="translate(0)"/><path class="cls-1" d="M84.37,25.4a1.49,1.49,0,0,1-1.09.49,1.37,1.37,0,0,1-1.13-.55,2.28,2.28,0,0,1-.3-1.6,2.27,2.27,0,0,1,.3-1.6,1.37,1.37,0,0,1,1.13-.55,1.55,1.55,0,0,1,1.09.5V20h0.85v5.89H84.37V25.4ZM82.7,23.74c0,0.65,0,1.31.84,1.31s0.83-.69.83-1.31,0-1.3-.83-1.3-0.84.65-.84,1.3" transform="translate(0)"/><path class="cls-1" d="M87,21.65h0.85v2.5a0.84,0.84,0,1,0,1.67,0v-2.5h0.85v4.19H89.51V25.39h0a1.34,1.34,0,0,1-1.09.5A1.41,1.41,0,0,1,87,24.43V21.65Z" transform="translate(0)"/><path class="cls-1" d="M95.38,25.16a2,2,0,0,1-1.51.73A1.88,1.88,0,0,1,92,23.75a1.89,1.89,0,0,1,1.91-2.15,2,2,0,0,1,1.51.73l-0.62.55a1.11,1.11,0,0,0-.86-0.44,1.07,1.07,0,0,0-1.1,1.31A1.07,1.07,0,0,0,93.9,25a1.11,1.11,0,0,0,.86-0.44Z" transform="translate(0)"/><path class="cls-1" d="M99,25.47h0a1.05,1.05,0,0,1-1,.42,1.32,1.32,0,0,1-1.49-1.28,1.23,1.23,0,0,1,1.37-1.24H99V22.93c0-.4-0.26-0.54-0.86-0.54a0.79,0.79,0,0,0-.8.32l-0.66-.5a1.59,1.59,0,0,1,1.42-.61c1,0,1.75.35,1.75,1.38v2.86H99V25.47Zm0-1.41H98c-0.5,0-.73.2-0.73,0.5s0.22,0.53.8,0.53S99,25,99,24.37V24.06Z" transform="translate(0)"/><path class="cls-1" d="M101.83,20.37h0.85v1.27h0.61v0.64h-0.61v2.44a0.26,0.26,0,0,0,.3.31h0.31v0.79h-0.44a1,1,0,0,1-1-1V22.29h-0.42V21.65h0.42V20.37Z" transform="translate(0)"/><rect class="cls-1" x="104.94" y="19.95" width="0.85" height="0.84"/><rect class="cls-1" x="104.94" y="21.65" width="0.85" height="4.19"/><path class="cls-1" d="M110.55,22.13a1.79,1.79,0,0,0-2.56,0,2,2,0,0,0-.46,1.6,2,2,0,0,0,.46,1.61,1.79,1.79,0,0,0,2.56,0,2,2,0,0,0,.46-1.61A2,2,0,0,0,110.55,22.13Zm-0.6,2.6a0.91,0.91,0,0,1-1.36,0,1.44,1.44,0,0,1-.21-1,1.43,1.43,0,0,1,.21-1,0.91,0.91,0,0,1,1.36,0,1.44,1.44,0,0,1,.21,1A1.43,1.43,0,0,1,109.95,24.74Z" transform="translate(0)"/><path class="cls-1" d="M112.72,21.65h0.85v0.45h0a1.35,1.35,0,0,1,1.1-.5,1.41,1.41,0,0,1,1.4,1.45v2.79h-0.85v-2.5a0.84,0.84,0,1,0-1.67,0v2.5h-0.85V21.65Z" transform="translate(0)"/><path d="M18.34,3.1A12.62,12.62,0,0,0,17,2.38c3.18-3,8.17-3.24,8.82-.36,0.53,2.38-2.44,3.36-4.16,1-1-1.33-2.73-.26-3.32.09" transform="translate(0)"/><path d="M7,19.57S0.53,17.74.81,11.16C1.1,4.37,7.49,2.24,12.26,2.32c4.38,0.07,9.91,3.2,9.77,9.46-0.1,4.68-2.23,8.24-11.34,8.73-4.68.25-5.84,1-5.88,2.67,0,1.22,2,1.36,3.41,1.52,6.57,0.76,17.28-.93,16.95,8.73C24.81,43.89,12.38,42.94,10.91,43,8.48,43-1,41.39.08,34.81,0.9,29.61,5.74,30,6.71,31.66c-3.46.05-6.22,9.84,5.34,10,9.34,0.1,9.23-5.63,9.24-6.42C21.4,28.68,11.21,29.93,7,29.58c-5.95-.48-7.82-8,0-10m4.35-16c-3.72,0-5.74,3.5-5.74,7.81s1.91,7.81,5.74,7.81,5.74-3.5,5.74-7.81S15,3.61,11.38,3.61" transform="translate(0)"/><g id="sm"><path class="cls-2" d="M43.26,8.17c0-2.87-2.26-3-3.65-3.16V4.2L47,3.05V8.8h0.1c0.58-1.67,3-5.74,6.92-5.74,4.52,0,5.72,2.34,5.72,5.74h0.1c0.72-1.63,2.69-5.74,7-5.74,5.72,0,5.72,3.83,5.72,7.61V25.83h-3.7V11.43c0-3.54,0-6-3.27-6-2.5,0-5.81,4.4-5.81,8.85V25.83H56V10.38c0-2.58,0-5-3.17-5S47,10.47,47,14.44V25.83h-3.7V8.17Z" transform="translate(0)"/><path class="cls-2" d="M36.78,9.16C36.19,7.38,35.14,4.95,32,4.95,29.24,4.95,28,6.27,28,8c0,3.25,5.85,4.6,8.46,6.53a5.81,5.81,0,0,1,2.75,5.27c0,4.68-3.78,6.41-9.06,6.41a22,22,0,0,1-5.89-.86l-0.3-5.29h1.18a5.58,5.58,0,0,0,5.39,4.56c3,0,4.91-1.95,4.91-3.59,0-3.25-4.43-4.69-7.44-6.41-2.08-1.29-3.74-2.63-3.74-5.29,0-3.59,2.85-6,7.92-6a29.92,29.92,0,0,1,5.5.73L38,9.17h-1.2Z" transform="translate(0)"/></g><g id="London"><path class="cls-1" d="M27.87,29.87c0-.83-0.37-0.79-1.21-0.89v-0.2l2.26-.28v6.57c0,1,0,1.06,1,1.06H31c0.9,0,.94-0.51,1-1.31H32.4l-0.06,1.78H27.87V29.87Z" transform="translate(0)"/><path class="cls-1" d="M33.7,32.55c0-2.58.76-4.19,3.16-4.19S40,30.16,40,32.55c0,2.55-.75,4.18-3.13,4.18s-3.16-1.78-3.16-4.18m5.11,0c0-1.52-.08-3.72-2-3.72s-2,2.06-2,3.72c0,1.5.08,3.71,2,3.71s2-2.06,2-3.71" transform="translate(0)"/><path class="cls-1" d="M42.35,29.92c0-1-.17-1-1.19-1.21V28.5h2.39l3.75,6.57h0V28.5h0.62v8.1H47l-4-7.06h0v7.06H42.35V29.92Z" transform="translate(0)"/><path class="cls-1" d="M50.75,29.87c0-.91-0.16-1-1.2-1.17V28.5h2.54c2.54,0,4.4.49,4.4,4.06s-1.94,4-4.45,4H50.75V29.87Zm1,5.37c0,0.59,0,.89.64,0.89,1.93,0,2.89-1.06,2.89-3.57,0-2.07-.56-3.59-2.71-3.59-0.72,0-.82.12-0.82,0.9v5.37Z" transform="translate(0)"/><path class="cls-1" d="M58.32,32.55c0-2.58.76-4.19,3.15-4.19s3.13,1.79,3.13,4.19c0,2.55-.75,4.18-3.13,4.18s-3.15-1.78-3.15-4.18m5.1,0c0-1.52-.08-3.72-2-3.72s-2,2.06-2,3.72c0,1.5.08,3.71,2,3.71s2-2.06,2-3.71" transform="translate(0)"/><path class="cls-1" d="M66.93,29.92c0-1-.17-1-1.19-1.21V28.5h2.38l3.74,6.57h0V28.5h0.62v8.1h-0.9l-4-7.06h0v7.06H66.93V29.92Z" transform="translate(0)"/></g></svg>
