<svg xmlns="http://www.w3.org/2000/svg" width="100.01" height="32" viewBox="0 0 100.01 32"><defs><style>.cls-help{fill:#95919d;}</style></defs><title>help</title><path class="cls-help" d="M54,2a6,6,0,0,1,6,6V24a6,6,0,0,1-6,6H48a6,6,0,0,1-6-6V8a6,6,0,0,1,6-6h6m0-2H48a8,8,0,0,0-8,8V24a8,8,0,0,0,8,8h6a8,8,0,0,0,8-8V8a8,8,0,0,0-8-8h0Z" transform="translate(0 0)"/><path class="cls-help" d="M79.89,18V16c9.33,0,14.81-5.88,18.66-10L100,7.37C96,11.6,90.09,18,79.89,18" transform="translate(0 0)"/><polygon class="cls-help" points="100.01 16 98.01 16 98.01 8 90.01 8 90.01 6 100.01 6 100.01 16"/><path class="cls-help" d="M20.12,18V16C10.79,16,5.31,10.13,1.46,6L0,7.37C4,11.6,9.92,18,20.12,18" transform="translate(0 0)"/><polygon class="cls-help" points="0 16 2 16 2 8 10 8 10 6 0 6 0 16"/><path class="cls-help" d="M51,7h0a2,2,0,0,1,2,2v6a2,2,0,0,1-2,2h0a2,2,0,0,1-2-2V9A2,2,0,0,1,51,7Z" transform="translate(0 0)"/></svg>
