<svg xmlns="http://www.w3.org/2000/svg" class="source-country" width="15" height="20" viewBox="0 0 15 20">
	<defs>
		<style>.pin-sourcecountry-a{fill:#1f1c25;fill-rule:evenodd;}.pin-sourcecountry-b{fill:#fff;}</style>
	</defs>
	<path class="pin-sourcecountry-a" d="M7.5,19A6.51,6.51,0,0,1,1,12.5c0-2.75,4.17-8.24,6.5-11C9.83,4.26,14,9.75,14,12.5A6.51,6.51,0,0,1,7.5,19Z"/>
	<path class="pin-sourcecountry-b" d="M7.5,3.08C10.14,6.31,13,10.55,13,12.5a5.5,5.5,0,1,1-11,0c0-1.95,2.86-6.19,5.5-9.42M7.5,0S0,8.36,0,12.5a7.5,7.5,0,1,0,15,0C15,8.36,7.5,0,7.5,0h0Z"/>
</svg>
